{"glyphs":{"0":{"ha":794,"x_min":69,"x_max":725,"o":"m 725 497 q 644 113 725 240 q 396 -14 563 -14 q 153 116 236 -14 q 69 497 69 246 q 150 882 69 756 q 396 1007 231 1007 q 641 876 557 1007 q 725 497 725 745 m 183 497 q 234 182 183 281 q 396 83 285 83 q 559 183 509 83 q 610 497 610 283 q 559 810 610 711 q 396 909 509 909 q 234 811 285 909 q 183 497 183 713 z "},"1":{"ha":794,"x_min":127,"x_max":485,"o":"m 485 0 l 375 0 l 375 707 q 380 873 375 795 q 349 844 366 859 q 187 711 331 828 l 127 789 l 390 991 l 485 991 l 485 0 z "},"2":{"ha":794,"x_min":68,"x_max":720,"o":"m 720 0 l 68 0 l 68 97 l 329 359 q 486 532 448 480 q 543 632 524 583 q 562 737 562 681 q 514 863 562 817 q 380 909 466 909 q 263 889 319 909 q 140 815 208 869 l 81 892 q 379 1006 218 1006 q 598 934 519 1006 q 677 742 677 863 q 625 555 677 648 q 427 322 572 463 l 210 110 l 210 104 l 720 104 l 720 0 z "},"3":{"ha":794,"x_min":64,"x_max":713,"o":"m 682 758 q 629 603 682 663 q 478 522 576 543 l 478 517 q 655 441 597 502 q 713 281 713 380 q 614 63 713 139 q 335 -14 516 -14 q 191 -2 256 -14 q 64 40 125 10 l 64 147 q 201 99 128 115 q 339 82 274 82 q 596 283 596 82 q 313 464 596 464 l 215 464 l 215 561 l 314 561 q 498 612 430 561 q 566 754 566 663 q 516 868 566 827 q 380 909 466 909 q 258 892 315 909 q 126 827 200 874 l 69 903 q 210 978 130 951 q 378 1006 290 1006 q 602 940 522 1006 q 682 758 682 873 z "},"4":{"ha":794,"x_min":29,"x_max":766,"o":"m 766 228 l 619 228 l 619 0 l 511 0 l 511 228 l 29 228 l 29 326 l 500 997 l 619 997 l 619 330 l 766 330 l 766 228 m 511 330 l 511 660 q 518 879 511 757 l 513 879 q 452 771 480 814 l 142 330 l 511 330 z "},"5":{"ha":794,"x_min":90,"x_max":714,"o":"m 378 606 q 624 528 534 606 q 714 315 714 450 q 616 74 714 161 q 346 -14 518 -14 q 90 40 178 -14 l 90 149 q 208 101 138 118 q 347 83 279 83 q 533 140 467 83 q 599 302 599 196 q 345 510 599 510 q 172 490 280 510 l 114 528 l 151 991 l 644 991 l 644 888 l 248 888 l 222 590 q 378 606 300 606 z "},"6":{"ha":794,"x_min":79,"x_max":726,"o":"m 79 424 q 193 861 79 716 q 529 1006 307 1006 q 650 993 606 1006 l 650 896 q 530 913 597 913 q 287 813 371 913 q 195 501 203 714 l 203 501 q 439 618 277 618 q 649 537 572 618 q 726 318 726 456 q 642 75 726 163 q 414 -14 557 -14 q 170 102 260 -14 q 79 424 79 218 m 412 82 q 562 143 509 82 q 615 318 615 203 q 566 473 615 416 q 418 529 516 529 q 306 504 357 529 q 225 435 255 479 q 195 343 195 391 q 222 213 195 273 q 299 117 249 153 q 412 82 349 82 z "},"7":{"ha":794,"x_min":64,"x_max":724,"o":"m 193 0 l 604 888 l 64 888 l 64 991 l 724 991 l 724 901 l 318 0 l 193 0 z "},"8":{"ha":794,"x_min":71,"x_max":722,"o":"m 396 1006 q 611 943 532 1006 q 690 768 690 880 q 645 635 690 695 q 500 525 600 574 q 671 404 621 467 q 722 257 722 340 q 636 60 722 134 q 400 -14 550 -14 q 156 56 241 -14 q 71 253 71 125 q 278 518 71 423 q 144 632 184 571 q 103 770 103 694 q 183 942 103 878 q 396 1006 262 1006 m 182 250 q 238 123 182 169 q 397 78 295 78 q 555 125 498 78 q 611 256 611 173 q 558 373 611 321 q 374 472 505 424 q 227 376 273 429 q 182 250 182 323 m 395 914 q 262 873 310 914 q 214 765 214 833 q 254 658 214 703 q 401 568 294 613 q 539 656 498 609 q 579 765 579 703 q 530 874 579 833 q 395 914 481 914 z "},"9":{"ha":794,"x_min":72,"x_max":720,"o":"m 720 568 q 269 -14 720 -14 q 144 0 191 -14 l 144 97 q 268 79 199 79 q 514 180 431 79 q 604 489 597 281 l 596 489 q 497 403 559 433 q 358 374 435 374 q 149 452 227 374 q 72 672 72 531 q 158 916 72 827 q 386 1006 245 1006 q 563 954 487 1006 q 679 803 638 902 q 720 568 720 703 m 386 909 q 236 847 289 909 q 183 673 183 785 q 232 520 183 576 q 380 464 281 464 q 494 489 442 464 q 576 557 546 514 q 606 648 606 601 q 578 780 606 720 q 500 875 550 840 q 386 909 450 909 z "},"A":{"ha":879,"x_min":0,"x_max":879,"o":"m 760 0 l 636 315 l 239 315 l 117 0 l 0 0 l 392 996 l 489 996 l 879 0 l 760 0 m 600 419 l 485 726 q 439 869 463 785 q 396 726 424 804 l 279 419 l 600 419 z "},"B":{"ha":900,"x_min":136,"x_max":823,"o":"m 136 991 l 416 991 q 702 932 614 991 q 790 746 790 873 q 741 601 790 658 q 597 526 692 543 l 597 519 q 823 282 823 481 q 733 75 823 149 q 482 0 644 0 l 136 0 l 136 991 m 252 567 l 441 567 q 617 605 564 567 q 671 734 671 644 q 611 855 671 818 q 421 892 551 892 l 252 892 l 252 567 m 252 469 l 252 98 l 458 98 q 639 145 578 98 q 700 290 700 191 q 638 426 700 382 q 449 469 576 469 l 252 469 z "},"C":{"ha":876,"x_min":85,"x_max":835,"o":"m 561 903 q 303 794 397 903 q 208 496 208 685 q 299 195 208 301 q 559 89 391 89 q 796 126 663 89 l 796 25 q 542 -14 693 -14 q 204 119 323 -14 q 85 497 85 252 q 142 766 85 650 q 308 943 199 881 q 562 1006 416 1006 q 835 949 718 1006 l 786 850 q 561 903 673 903 z "},"D":{"ha":1013,"x_min":136,"x_max":928,"o":"m 928 505 q 794 130 928 260 q 411 0 661 0 l 136 0 l 136 991 l 440 991 q 800 863 671 991 q 928 505 928 735 m 806 501 q 708 793 806 695 q 419 892 611 892 l 252 892 l 252 100 l 392 100 q 702 201 598 100 q 806 501 806 302 z "},"E":{"ha":772,"x_min":136,"x_max":689,"o":"m 689 0 l 136 0 l 136 991 l 689 991 l 689 889 l 252 889 l 252 570 l 663 570 l 663 468 l 252 468 l 252 103 l 689 103 l 689 0 z "},"F":{"ha":717,"x_min":136,"x_max":689,"o":"m 252 0 l 136 0 l 136 991 l 689 991 l 689 889 l 252 889 l 252 526 l 663 526 l 663 424 l 252 424 l 252 0 z "},"G":{"ha":1011,"x_min":85,"x_max":909,"o":"m 572 519 l 909 519 l 909 37 q 749 -1 831 12 q 561 -14 668 -14 q 210 120 336 -14 q 85 496 85 254 q 147 767 85 650 q 326 944 209 883 q 599 1006 442 1006 q 895 947 758 1006 l 850 846 q 591 903 715 903 q 309 795 410 903 q 207 496 207 687 q 305 191 207 295 q 593 87 403 87 q 794 111 696 87 l 794 416 l 572 416 l 572 519 z "},"H":{"ha":1025,"x_min":136,"x_max":889,"o":"m 889 0 l 774 0 l 774 467 l 252 467 l 252 0 l 136 0 l 136 991 l 252 991 l 252 570 l 774 570 l 774 991 l 889 991 l 889 0 z "},"J":{"ha":371,"x_min":-109,"x_max":244,"o":"m -8 -261 q -109 -243 -72 -261 l -109 -144 q -8 -158 -60 -158 q 94 -117 59 -158 q 129 0 129 -77 l 129 991 l 244 991 l 244 9 q 179 -190 244 -119 q -8 -261 114 -261 z "},"K":{"ha":852,"x_min":136,"x_max":852,"o":"m 852 0 l 717 0 l 355 481 l 252 389 l 252 0 l 136 0 l 136 991 l 252 991 l 252 500 l 701 991 l 838 991 l 439 561 l 852 0 z "},"L":{"ha":721,"x_min":136,"x_max":689,"o":"m 136 0 l 136 991 l 252 991 l 252 104 l 689 104 l 689 0 l 136 0 z "},"M":{"ha":1254,"x_min":136,"x_max":1118,"o":"m 575 0 l 239 879 l 233 879 q 243 631 243 774 l 243 0 l 136 0 l 136 991 l 310 991 l 624 174 l 629 174 l 946 991 l 1118 991 l 1118 0 l 1003 0 l 1003 639 q 1013 878 1003 749 l 1007 878 l 668 0 l 575 0 z "},"N":{"ha":1047,"x_min":136,"x_max":911,"o":"m 911 0 l 779 0 l 237 832 l 232 832 q 243 564 243 686 l 243 0 l 136 0 l 136 991 l 267 991 l 807 163 l 812 163 q 806 280 811 181 q 803 422 802 380 l 803 991 l 911 991 l 911 0 z "},"O":{"ha":1082,"x_min":85,"x_max":997,"o":"m 997 497 q 877 123 997 259 q 542 -14 756 -14 q 204 120 323 -14 q 85 498 85 254 q 204 874 85 741 q 543 1007 323 1007 q 877 871 757 1007 q 997 497 997 736 m 207 497 q 293 192 207 296 q 542 87 378 87 q 791 191 707 87 q 875 497 875 295 q 791 801 875 697 q 543 904 707 904 q 293 800 378 904 q 207 497 207 696 z "},"P":{"ha":836,"x_min":136,"x_max":765,"o":"m 765 703 q 662 471 765 552 q 368 390 559 390 l 252 390 l 252 0 l 136 0 l 136 991 l 393 991 q 765 703 765 991 m 252 489 l 355 489 q 577 538 509 489 q 646 697 646 588 q 581 844 646 795 q 380 892 517 892 l 252 892 l 252 489 z "},"Q":{"ha":1082,"x_min":85,"x_max":997,"o":"m 997 497 q 920 180 997 307 q 704 9 844 54 l 940 -236 l 772 -236 l 579 -12 l 542 -14 q 204 120 323 -14 q 85 498 85 254 q 204 874 85 741 q 543 1007 323 1007 q 877 871 757 1007 q 997 497 997 736 m 207 497 q 293 192 207 296 q 542 87 378 87 q 791 191 707 87 q 875 497 875 295 q 791 801 875 697 q 543 904 707 904 q 293 800 378 904 q 207 497 207 696 z "},"R":{"ha":859,"x_min":136,"x_max":835,"o":"m 252 412 l 252 0 l 136 0 l 136 991 l 408 991 q 678 922 591 991 q 765 711 765 852 q 566 446 765 515 l 835 0 l 699 0 l 458 412 l 252 412 m 252 511 l 410 511 q 589 560 532 511 q 646 705 646 608 q 588 847 646 804 q 401 890 530 890 l 252 890 l 252 511 z "},"S":{"ha":762,"x_min":72,"x_max":696,"o":"m 696 264 q 601 60 696 133 q 343 -14 506 -14 q 72 32 167 -14 l 72 143 q 205 102 133 117 q 347 87 277 87 q 521 131 463 87 q 579 253 579 175 q 558 337 579 304 q 489 398 538 370 q 342 461 441 426 q 144 578 203 511 q 85 755 85 646 q 171 938 85 870 q 399 1006 257 1006 q 671 951 547 1006 l 635 851 q 396 903 512 903 q 253 863 304 903 q 201 754 201 824 q 220 670 201 703 q 284 609 239 637 q 422 549 330 582 q 637 429 578 493 q 696 264 696 366 z "},"T":{"ha":768,"x_min":12,"x_max":755,"o":"m 441 0 l 326 0 l 326 889 l 12 889 l 12 991 l 755 991 l 755 889 l 441 889 l 441 0 z "},"U":{"ha":1011,"x_min":126,"x_max":885,"o":"m 885 991 l 885 350 q 783 83 885 180 q 501 -14 680 -14 q 224 84 322 -14 q 126 353 126 182 l 126 991 l 241 991 l 241 345 q 309 154 241 220 q 509 87 377 87 q 702 154 634 87 q 770 346 770 221 l 770 991 l 885 991 z "},"V":{"ha":827,"x_min":0,"x_max":827,"o":"m 703 991 l 827 991 l 469 0 l 355 0 l 0 991 l 122 991 l 350 350 q 412 135 389 239 q 476 354 437 245 l 703 991 z "},"W":{"ha":1286,"x_min":18,"x_max":1267,"o":"m 1002 0 l 888 0 l 688 664 q 656 775 673 708 q 637 856 638 842 q 590 660 623 766 l 396 0 l 282 0 l 18 991 l 140 991 l 297 379 q 345 146 330 250 q 399 389 363 270 l 576 991 l 699 991 l 885 383 q 940 146 918 278 q 989 380 953 242 l 1145 991 l 1267 991 l 1002 0 z "},"X":{"ha":802,"x_min":5,"x_max":796,"o":"m 796 0 l 665 0 l 399 436 l 127 0 l 5 0 l 335 518 l 28 991 l 155 991 l 401 599 l 650 991 l 772 991 l 465 522 l 796 0 z "},"Y":{"ha":778,"x_min":0,"x_max":778,"o":"m 389 496 l 653 991 l 778 991 l 447 385 l 447 0 l 330 0 l 330 379 l 0 991 l 126 991 l 389 496 z "},"Z":{"ha":793,"x_min":56,"x_max":737,"o":"m 737 0 l 56 0 l 56 90 l 582 888 l 72 888 l 72 991 l 722 991 l 722 901 l 196 104 l 737 104 l 737 0 z "},"I":{"ha":387,"x_min":136,"x_max":252,"o":"m 136 0 l 136 991 l 252 991 l 252 0 l 136 0 z "}}}
